<svg version="1.1" xmlns="http://www.w3.org/2000/svg" xmlns:xlink="http://www.w3.org/1999/xlink" x="0px" y="0px"
	 viewBox="0 0 200 261.7" style="enable-background:new 0 0 200 261.7;" xml:space="preserve">
<style type="text/css">
	.st0{fill:url(#SVGID_1_);}
	.st1{opacity:0.5;}
	.st2{fill:url(#SVGID_2_);}
	.st3{fill:#FFFFFF;}
</style>
<g id="background">
</g>
<g id="stickers">
	<g>
		<g>
			
			<g>
				<g>
					<linearGradient id="SVGID_1_" gradientUnits="userSpaceOnUse" x1="100" y1="225.7636" x2="100" y2="-4.490175e-009">
						<stop  offset="0" style="stop-color:#369353"/>
						<stop  offset="0.2651" style="stop-color:#34945B"/>
						<stop  offset="0.4354" style="stop-color:#33945F"/>
						<stop  offset="0.5145" style="stop-color:#37955F"/>
						<stop  offset="0.5965" style="stop-color:#43995F"/>
						<stop  offset="0.6799" style="stop-color:#56A05F"/>
						<stop  offset="0.7636" style="stop-color:#6EAB5E"/>
						<stop  offset="0.7704" style="stop-color:#70AC5E"/>
						<stop  offset="0.8215" style="stop-color:#69A85C"/>
						<stop  offset="0.9047" style="stop-color:#559F57"/>
						<stop  offset="1" style="stop-color:#359352"/>
					</linearGradient>
					<polygon class="st0" points="200,0 200,185.8 100,225.8 0,185.8 0,0 					"/>
				</g>
			</g>
		</g>
		<g class="st1">
			<linearGradient id="SVGID_2_" gradientUnits="userSpaceOnUse" x1="100" y1="225.7636" x2="100" y2="-4.490175e-009">
				<stop  offset="0" style="stop-color:#000000;stop-opacity:0"/>
				<stop  offset="0.5" style="stop-color:#000000"/>
				<stop  offset="1" style="stop-color:#000000;stop-opacity:0"/>
			</linearGradient>
			<path class="st2" d="M196,4v179.1l-96,38.4L4,183.1V4H196 M200,0H0v185.8l100,40l100-40V0L200,0z"/>
		</g>
	</g>
	<g>
		<path class="st3" d="M28.3,86.6h5.1L32.5,93c4.2-5,9-7.4,14.6-7.4c4.2,0,7.7,1.3,10.3,3.9c2.6,2.6,3.9,6.1,3.9,10.5
			c0,1.8-0.3,4.7-0.8,8.9l-2.5,18.8h-5.2l2.5-18.8c0.5-4,0.8-7,0.8-8.9c0-2.9-0.9-5.2-2.6-7s-4-2.6-6.9-2.6c-2.8,0-5.4,0.7-7.7,2.2
			c-2.4,1.4-4.2,3.4-5.6,5.8c-1.3,2.5-2.3,6.3-3,11.6l-2.4,17.7h-5.2L28.3,86.6z"/>
		<path class="st3" d="M112.3,108.2H75.7c-0.1,4.9,1.2,8.7,3.8,11.5c2.6,2.8,6.1,4.2,10.5,4.2c2.9,0,5.6-0.6,8-1.8
			c2.5-1.2,4.5-2.8,6.1-5l3.9,3.2c-2,2.5-4.6,4.6-7.8,6.1c-3.2,1.5-6.7,2.3-10.4,2.3c-6.4,0-11.3-2-14.5-6c-3.2-4-4.8-8.5-4.8-13.5
			c0-4.1,1.1-8,3.3-11.8c2.2-3.8,5.1-6.7,8.7-8.8c3.6-2.1,7.6-3.2,11.8-3.2c5.3,0,9.6,1.8,13.1,5.3c3.4,3.6,5.2,8.1,5.2,13.6
			C112.6,105.5,112.5,106.8,112.3,108.2z M107.5,103.6c-0.2-3.9-1.5-7-4-9.4c-2.5-2.4-5.6-3.6-9.4-3.6c-4.1,0-7.7,1.2-10.8,3.5
			s-5.4,5.5-6.7,9.5H107.5z"/>
		<path class="st3" d="M121.2,86.6h5.2l8.5,29l15.5-29h0.9l9.4,29.3l15.1-29.3h5.7l-21.2,41.1h-1.1l-9.5-29l-15.5,29h-1L121.2,86.6z
			"/>
	</g>
</g>
</svg>
