<svg version="1.1" id="Слой_1" xmlns="http://www.w3.org/2000/svg" xmlns:xlink="http://www.w3.org/1999/xlink" x="0px" y="0px"
	 viewBox="0 0 200 261.7" style="enable-background:new 0 0 200 261.7;" xml:space="preserve">
<style type="text/css">
	.st0{fill:url(#SVGID_1_);}
	.st1{opacity:0.5;}
	.st2{fill:url(#SVGID_2_);}
	.st3{enable-background:new    ;}
	.st4{fill:#262424;}
</style>
<g>
	<g id="stickers">
		
			<linearGradient id="SVGID_1_" gradientUnits="userSpaceOnUse" x1="100" y1="38.24" x2="100" y2="264" gradientTransform="matrix(1 0 0 -1 0 264)">
			<stop  offset="0" style="stop-color:#E7B131"/>
			<stop  offset="0.22" style="stop-color:#EBBB3F"/>
			<stop  offset="0.44" style="stop-color:#EEC148"/>
			<stop  offset="0.55" style="stop-color:#F0C548"/>
			<stop  offset="0.66" style="stop-color:#F4D248"/>
			<stop  offset="0.77" style="stop-color:#FCE549"/>
			<stop  offset="0.83" style="stop-color:#F9DC45"/>
			<stop  offset="0.92" style="stop-color:#F0C43B"/>
			<stop  offset="1" style="stop-color:#E6A92F"/>
		</linearGradient>
		<polygon class="st0" points="200,0 200,185.8 100,225.8 0,185.8 0,0 		"/>
		<g class="st1">
			
				<linearGradient id="SVGID_2_" gradientUnits="userSpaceOnUse" x1="100" y1="38.23" x2="100" y2="264" gradientTransform="matrix(1 0 0 -1 0 264)">
				<stop  offset="0" style="stop-color:#262424;stop-opacity:0"/>
				<stop  offset="0.5" style="stop-color:#262424"/>
				<stop  offset="1" style="stop-color:#262424;stop-opacity:0"/>
			</linearGradient>
			<path class="st2" d="M196,4v179.1l-96,38.4L4,183.1V4H196 M200,0H0v185.8l100,40l100-40V0L200,0z"/>
		</g>
		<g class="st3">
			<path class="st4" d="M40.9,66h8.4l14.1,30.8L86.6,66h9.3l-29,38.5l18.7,40.9h-8.4l-15.5-34l-25.6,34h-9.3l31.4-41.7L40.9,66z"/>
			<path class="st4" d="M109.3,66h8l-10.7,79.3h-8L109.3,66z"/>
			<path class="st4" d="M125.3,66h47.4l-1,7.5h-20l-9.7,71.8h-8l9.7-71.8h-19.4L125.3,66z"/>
		</g>
	</g>
</g>
</svg>
