<svg version="1.1" id="Слой_1" xmlns="http://www.w3.org/2000/svg" xmlns:xlink="http://www.w3.org/1999/xlink" x="0px" y="0px"
	 viewBox="0 0 200 261.7" style="enable-background:new 0 0 200 261.7;" xml:space="preserve">
<style type="text/css">
	.st0{fill:url(#SVGID_1_);}
	.st1{opacity:0.5;}
	.st2{fill:url(#SVGID_2_);}
	.st3{enable-background:new    ;}
	.st4{fill:#FFFFFF;}
</style>
<g id="background">
</g>
<g id="stickers">
	<g>
		<g>

			<g>
				<g>
					
						<linearGradient id="SVGID_1_" gradientUnits="userSpaceOnUse" x1="100" y1="38.2" x2="100" y2="264" gradientTransform="matrix(1 0 0 -1 0 264)">
						<stop  offset="0" style="stop-color:#7E2022"/>
						<stop  offset="9.239294e-002" style="stop-color:#872224"/>
						<stop  offset="0.3047" style="stop-color:#9A2428"/>
						<stop  offset="0.4354" style="stop-color:#A12529"/>
						<stop  offset="0.5195" style="stop-color:#A3292A"/>
						<stop  offset="0.6066" style="stop-color:#AC362E"/>
						<stop  offset="0.6948" style="stop-color:#BC4B37"/>
						<stop  offset="0.7704" style="stop-color:#D46345"/>
						<stop  offset="0.8275" style="stop-color:#CA583D"/>
						<stop  offset="0.9202" style="stop-color:#B53E2D"/>
						<stop  offset="1" style="stop-color:#A01E20"/>
					</linearGradient>
					<polygon class="st0" points="200,0 200,185.8 100,225.8 0,185.8 0,0 					"/>
				</g>
			</g>
		</g>
		<g class="st1">
			
				<linearGradient id="SVGID_2_" gradientUnits="userSpaceOnUse" x1="100" y1="38.2" x2="100" y2="264" gradientTransform="matrix(1 0 0 -1 0 264)">
				<stop  offset="0" style="stop-color:#000000;stop-opacity:0"/>
				<stop  offset="0.5" style="stop-color:#000000"/>
				<stop  offset="1" style="stop-color:#000000;stop-opacity:0"/>
			</linearGradient>
			<path class="st2" d="M196,4v179.1l-96,38.4L4,183.1V4H196 M200,0H0v185.8l100,40l100-40V0L200,0z"/>
		</g>
	</g>
	<g class="st3">
		<path class="st4" d="M145.5,61L59.2,169.2h-7.7L131,69.5c-3.9,1-8,1.7-12.3,2.2c-4.3,0.5-8.7,0.7-13.3,0.7c-2.2,0-5-0.1-8.4-0.3
			c2.1,3.4,3.2,7.1,3.2,10.8c0,7.4-2.5,13.6-7.4,18.6c-4.9,5-11.1,7.5-18.4,7.5c-6,0-10.9-1.9-14.7-5.7c-3.8-3.8-5.6-8.6-5.6-14.4
			c0-7.3,2.6-13.4,7.9-18.5c5.3-5,11.1-7.6,17.4-7.6c1.7,0,4.4,0.4,8.1,1.1c7,1.5,13,2.2,17.9,2.2c5.4,0,10.9-0.4,16.4-1.3
			c5.5-0.9,11.2-2.1,16.8-3.9H145.5z M79.6,70.1c-4.8,0-8.9,1.8-12.4,5.4c-3.5,3.6-5.2,7.9-5.2,12.7c0,4,1.2,7.3,3.7,9.9
			c2.5,2.6,5.6,3.9,9.4,3.9c5.1,0,9.2-1.9,12.4-5.7c3.2-3.8,4.8-8.1,4.8-13.1c0-3.8-1.2-7-3.6-9.5C86.3,71.3,83.3,70.1,79.6,70.1z
			 M125.4,118.9c5.7,0,10.6,1.9,14.5,5.8c3.9,3.9,5.9,8.6,5.9,14.2c0,6.8-2.3,12.9-7,18.1c-4.7,5.2-11,7.9-18.9,7.9
			c-6,0-10.9-1.9-14.6-5.7c-3.8-3.8-5.6-8.5-5.6-14.3c0-7,2.6-13.1,7.7-18.3C112.5,121.5,118.5,118.9,125.4,118.9z M125.1,126
			c-4.8,0-8.9,1.8-12.4,5.4c-3.5,3.6-5.2,7.9-5.2,12.7c0,4,1.2,7.2,3.7,9.8c2.5,2.6,5.6,3.9,9.4,3.9c5.1,0,9.3-1.9,12.5-5.6
			c3.2-3.8,4.8-8.1,4.8-13c0-3.8-1.2-7-3.6-9.5C131.9,127.2,128.8,126,125.1,126z"/>
	</g>
</g>
</svg>
