<svg  xmlns="http://www.w3.org/2000/svg" x="0px" y="0px"
	 viewBox="0 0 16 16" style="enable-background:new 0 0 20 20;" width="22px" height="22px" xml:space="preserve">
<style type="text/css">
	.st0{display:none;opacity:0.3;fill:url(#XMLID_2_);}
	.st1{fill:url(#SVGID_1_);}
	.st2{fill:#FFFFFF;}
	.st3{fill:url(#SVGID_2_);}
	.st4{fill:url(#SVGID_3_);}
</style>
<g>
	<linearGradient id="SVGID_1_" gradientUnits="userSpaceOnUse" x1="3.5721" y1="11.5501" x2="12.7182" y2="2.404">
		<stop  offset="0" style="stop-color:#890020"/>
		<stop  offset="1" style="stop-color:#4B1EC9"/>
	</linearGradient>
	<path class="st1" d="M8.1,0c-3,0-5.5,2.6-5.5,5.8c0,2.8,4,8.5,5.2,10C8,16,8.3,16,8.4,15.8c1.1-1.5,5.2-7.2,5.2-10
		C13.6,2.6,11.2,0,8.1,0z"/>
	<path class="st2" d="M14.3,6.4c-0.5,0.2-1.1,0.5-2,0.9c-0.1,0.1-0.3,0.1-0.5,0.2c-1,0.4-1.9,0.6-2.4,0.8C9.3,8.1,9.2,8.1,9.2,8.1
		c-0.1,0-0.1,0.1-0.1,0.2C8.8,8,7.8,7.8,6.6,8.1C6,8.3,5.5,8.6,5.1,8.9c0,0-0.3,0.2-0.2,0.2c0,0,0.3,0,0.3,0C5.6,9,6,8.9,6.5,8.7
		c0.4-0.1,0.8-0.2,1.2-0.3l0,0.1C7,8.7,6.2,9,5.2,9.4C5,9.5,4.9,9.6,5,9.6c0,0,0.2,0.1,0.3,0c0.5-0.1,0.9-0.3,1.4-0.4
		C7.1,9.1,7.5,9,7.8,8.9l0,0.1C7.2,9.2,6.3,9.5,5.4,9.9C5.2,10,5.1,10,5.1,10.1c0,0.1,0.2,0.1,0.3,0.1C5.9,10,6.4,9.9,6.8,9.8
		C7.3,9.6,7.7,9.5,8,9.4l0,0.1c-0.7,0.2-1.5,0.6-2.5,0.9c-0.1,0.1-0.2,0.1-0.2,0.2c0,0,0.1,0,0.3,0c0.4,0,1-0.1,1.7-0.3
		c1.2-0.4,1.8-1.1,1.9-1.6c0.1,0.1,0.1,0.1,0.2,0.1c0.1,0,0.1-0.1,0.1-0.3c1.2-0.1,2.2-0.3,2.9-0.6c1.3-0.5,2-1,2.3-1.3
		c0,0,0.8-0.7,0.9-1.5c0-0.1,0-0.2,0-0.2c0-0.1,0-0.2,0-0.3c0-0.1-0.1-0.4-0.2-0.4C15.4,4.3,15.1,4.7,14.3,6.4z"/>
	<path class="st2" d="M8.6,4C8.4,4.1,7.9,4.4,7.6,5c-0.2,0.4-0.2,0.8-0.2,1c-0.1,0-0.1,0-0.1,0C7.2,5.9,7.1,6,7.2,6.2
		c-0.7,0.3-1.5,0.7-2.5,1c-0.7,0.2-1.4,0.3-2,0.4c-0.4,0.1-1,0.2-1.5,0c-0.6-0.3-0.8-1-0.9-1c0,0,0.4,0.9,0.4,0.9
		c0,0-0.2-0.3-0.4-0.8c0,0.2,0,0.5,0.2,0.8C0.8,7.8,1.2,8,1.6,8.1C2,8.2,2.4,8.2,2.9,8.2c0.5,0,1.1-0.1,2-0.5C5.5,7.4,6.4,7,7.3,6.4
		c0,0.1,0.1,0.2,0.2,0.2c0.1,0,0.1,0,0.2-0.1c0.1,0,1.2,0.7,2.3,0.2c0.9-0.5,1.5-1.7,1.1-2.4C10.7,3.6,9.4,3.7,8.6,4z"/>
	
		<linearGradient id="SVGID_2_" gradientUnits="userSpaceOnUse" x1="-80.8726" y1="360.1946" x2="-83.6491" y2="360.2731" gradientTransform="matrix(0.9958 9.195551e-002 -9.195551e-002 0.9958 116.7272 -344.192)">
		<stop  offset="0" style="stop-color:#890020"/>
		<stop  offset="1" style="stop-color:#4B1EC9"/>
	</linearGradient>
	<path class="st3" d="M3,7.5c-0.5,0-0.9,0-1.1-0.1C1.4,7.2,1.2,7,1.2,6.9C1.1,6.9,1,6.7,1,6.6c0-0.2,0.1-0.2,0.1-0.3
		c0-0.1-0.3-0.2-0.5-0.1C0.4,6.3,0.3,6.6,0.3,6.8c0,0.3,0.1,0.4,0.2,0.5c0.1,0.1,0.2,0.3,0.7,0.4C2,7.9,2.7,7.6,3,7.5z"/>
	
		<linearGradient id="SVGID_3_" gradientUnits="userSpaceOnUse" x1="6064.7793" y1="-2259.9126" x2="6066.2197" y2="-2261.0981" gradientTransform="matrix(-0.8886 0.7255 0.6324 0.7746 6834.1108 -2644.0823)">
		<stop  offset="0" style="stop-color:#890020"/>
		<stop  offset="1" style="stop-color:#4B1EC9"/>
	</linearGradient>
	<path class="st4" d="M13.5,6.8c0.4-0.3,0.7-0.6,0.9-0.8c0.2-0.3,0.4-0.5,0.5-0.9c0-0.3,0-0.4-0.1-0.4c-0.1-0.1-0.3-0.1-0.3-0.2
		c0-0.1,0.2-0.4,0.5-0.4c0.3-0.1,0.5,0.1,0.6,0.3c0.1,0.2,0.1,0.5,0.1,0.6c-0.1,0.3-0.2,0.5-0.4,0.8C14.6,6.3,13.9,6.6,13.5,6.8z"/>
</g>
</svg>
